# Blender 4.2.0
# www.blender.org
mtllib cube.mtl
o Test
v 0.750000 0.750000 -0.750000
v 0.750000 -0.750000 -0.750000
v 0.750000 0.750000 0.750000
v 0.750000 -0.750000 0.750000
v -0.750000 0.750000 -0.750000
v -0.750000 -0.750000 -0.750000
v -0.750000 0.750000 0.750000
v -0.750000 -0.750000 0.750000
v -0.833333 -0.833333 0.000000
v 0.000000 -0.833333 -0.833333
v 0.833333 0.000000 -0.833333
v -0.833333 0.000000 0.833333
v 0.833333 0.000000 0.833333
v -0.833333 0.000000 -0.833333
v 0.000000 0.833333 0.833333
v 0.833333 0.833333 0.000000
v 0.000000 -0.833333 0.833333
v -0.833333 0.833333 0.000000
v 0.000000 0.833333 -0.833333
v 0.833333 -0.833333 0.000000
v 0.000000 0.000000 -1.000000
v 1.000000 0.000000 0.000000
v 0.000000 -1.000000 0.000000
v -1.000000 0.000000 -0.000000
v -0.000000 0.000000 1.000000
v 0.000000 1.000000 0.000000
v -0.819059 -0.819059 0.468364
v -0.468364 -0.819059 -0.819059
v 0.819059 -0.468364 -0.819059
v -0.819059 0.468364 0.819059
v 0.819059 -0.468364 0.819059
v -0.819059 -0.468364 -0.819059
v -0.468364 0.819059 0.819059
v 0.819059 0.819059 0.468364
v 0.468364 -0.819059 0.819059
v -0.819059 0.819059 -0.468364
v 0.468364 0.819059 -0.819059
v 0.819059 -0.819059 -0.468364
v -0.819059 -0.819059 -0.468364
v 0.468364 -0.819059 -0.819059
v 0.819059 0.468364 -0.819059
v -0.819059 -0.468364 0.819059
v 0.819059 0.468364 0.819059
v -0.819059 0.468364 -0.819059
v 0.468364 0.819059 0.819059
v 0.819059 0.819059 -0.468364
v -0.468364 -0.819059 0.819059
v -0.819059 0.819059 0.468364
v -0.468364 0.819059 -0.819059
v 0.819059 -0.819059 0.468364
v 0.479167 0.000000 -0.979167
v -0.479167 0.000000 -0.979167
v 0.000000 -0.479167 -0.979167
v 0.000000 0.479167 -0.979167
v 0.979167 0.000000 0.479167
v 0.979167 0.000000 -0.479167
v 0.979167 -0.479167 0.000000
v 0.979167 0.479167 0.000000
v 0.000000 -0.979167 0.479167
v 0.000000 -0.979167 -0.479167
v -0.479167 -0.979167 0.000000
v 0.479167 -0.979167 0.000000
v -0.979167 0.000000 -0.479167
v -0.979167 0.000000 0.479167
v -0.979167 -0.479167 -0.000000
v -0.979167 0.479167 -0.000000
v -0.479167 0.000000 0.979167
v 0.479167 0.000000 0.979167
v -0.000000 -0.479167 0.979167
v -0.000000 0.479167 0.979167
v 0.000000 0.979167 0.479167
v 0.000000 0.979167 -0.479167
v 0.479167 0.979167 0.000000
v -0.479167 0.979167 0.000000
v -0.476466 0.959105 0.476466
v -0.476466 0.476466 0.959105
v -0.959105 0.476466 -0.476466
v 0.476466 -0.959105 0.476466
v 0.959105 0.476466 0.476466
v 0.476466 0.476466 -0.959105
v 0.476466 -0.476466 -0.959105
v -0.476466 -0.476466 -0.959105
v -0.476466 0.476466 -0.959105
v 0.959105 -0.476466 0.476466
v 0.959105 -0.476466 -0.476466
v 0.959105 0.476466 -0.476466
v -0.476466 -0.959105 0.476466
v -0.476466 -0.959105 -0.476466
v 0.476466 -0.959105 -0.476466
v -0.959105 -0.476466 -0.476466
v -0.959105 -0.476466 0.476466
v -0.959105 0.476466 0.476466
v -0.476466 -0.476466 0.959105
v 0.476466 -0.476466 0.959105
v 0.476466 0.476466 0.959105
v 0.476466 0.959105 0.476466
v 0.476466 0.959105 -0.476466
v -0.476466 0.959105 -0.476466
vn 0.5774 0.5774 -0.5774
vn 0.5774 -0.5774 -0.5774
vn 0.5774 0.5774 0.5774
vn 0.5774 -0.5774 0.5774
vn -0.5774 0.5774 -0.5774
vn -0.5774 -0.5774 -0.5774
vn -0.5774 0.5774 0.5774
vn -0.5774 -0.5774 0.5774
vn -0.7071 -0.7071 -0.0000
vn -0.0000 -0.7071 -0.7071
vn 0.7071 -0.0000 -0.7071
vn -0.7071 -0.0000 0.7071
vn 0.7071 -0.0000 0.7071
vn -0.7071 -0.0000 -0.7071
vn -0.0000 0.7071 0.7071
vn 0.7071 0.7071 -0.0000
vn -0.0000 -0.7071 0.7071
vn -0.7071 0.7071 -0.0000
vn -0.0000 0.7071 -0.7071
vn 0.7071 -0.7071 -0.0000
vn -0.0000 -0.0000 -1.0000
vn 1.0000 -0.0000 -0.0000
vn -0.0000 -1.0000 -0.0000
vn -1.0000 -0.0000 -0.0000
vn -0.0000 -0.0000 1.0000
vn -0.0000 1.0000 -0.0000
vn -0.6933 -0.6933 0.1968
vn -0.1968 -0.6933 -0.6933
vn 0.6933 -0.1968 -0.6933
vn -0.6933 0.1968 0.6933
vn 0.6933 -0.1968 0.6933
vn -0.6933 -0.1968 -0.6933
vn -0.1968 0.6933 0.6933
vn 0.6933 0.6933 0.1968
vn 0.1968 -0.6933 0.6933
vn -0.6933 0.6933 -0.1968
vn 0.1968 0.6933 -0.6933
vn 0.6933 -0.6933 -0.1968
vn -0.6933 -0.6933 -0.1968
vn 0.1968 -0.6933 -0.6933
vn 0.6933 0.1968 -0.6933
vn -0.6933 -0.1968 0.6933
vn 0.6933 0.1968 0.6933
vn -0.6933 0.1968 -0.6933
vn 0.1968 0.6933 0.6933
vn 0.6933 0.6933 -0.1968
vn -0.1968 -0.6933 0.6933
vn -0.6933 0.6933 0.1968
vn -0.1968 0.6933 -0.6933
vn 0.6933 -0.6933 0.1968
vn 0.2143 -0.0000 -0.9768
vn -0.2143 -0.0000 -0.9768
vn -0.0000 -0.2143 -0.9768
vn -0.0000 0.2143 -0.9768
vn 0.9768 -0.0000 0.2143
vn 0.9768 -0.0000 -0.2143
vn 0.9768 -0.2143 -0.0000
vn 0.9768 0.2143 -0.0000
vn -0.0000 -0.9768 0.2143
vn -0.0000 -0.9768 -0.2143
vn -0.2143 -0.9768 -0.0000
vn 0.2143 -0.9768 -0.0000
vn -0.9768 -0.0000 -0.2143
vn -0.9768 -0.0000 0.2143
vn -0.9768 -0.2143 -0.0000
vn -0.9768 0.2143 -0.0000
vn -0.2143 -0.0000 0.9768
vn 0.2143 -0.0000 0.9768
vn -0.0000 -0.2143 0.9768
vn -0.0000 0.2143 0.9768
vn -0.0000 0.9768 0.2143
vn -0.0000 0.9768 -0.2143
vn 0.2143 0.9768 -0.0000
vn -0.2143 0.9768 -0.0000
vn -0.2026 0.9581 0.2026
vn -0.2026 0.2026 0.9581
vn -0.9581 0.2026 -0.2026
vn 0.2026 -0.9581 0.2026
vn 0.9581 0.2026 0.2026
vn 0.2026 0.2026 -0.9581
vn 0.2026 -0.2026 -0.9581
vn -0.2026 -0.2026 -0.9581
vn -0.2026 0.2026 -0.9581
vn 0.9581 -0.2026 0.2026
vn 0.9581 -0.2026 -0.2026
vn 0.9581 0.2026 -0.2026
vn -0.2026 -0.9581 0.2026
vn -0.2026 -0.9581 -0.2026
vn 0.2026 -0.9581 -0.2026
vn -0.9581 -0.2026 -0.2026
vn -0.9581 -0.2026 0.2026
vn -0.9581 0.2026 0.2026
vn -0.2026 -0.2026 0.9581
vn 0.2026 -0.2026 0.9581
vn 0.2026 0.2026 0.9581
vn 0.2026 0.9581 0.2026
vn 0.2026 0.9581 -0.2026
vn -0.2026 0.9581 -0.2026
vt 0.750000 0.625000
vt 0.812500 0.625000
vt 0.812500 0.687500
vt 0.750000 0.687500
vt 0.875000 0.625000
vt 0.875000 0.687500
vt 0.875000 0.750000
vt 0.812500 0.750000
vt 0.750000 0.750000
vt 0.500000 0.875000
vt 0.562500 0.875000
vt 0.562500 0.937500
vt 0.500000 0.937500
vt 0.625000 0.875000
vt 0.625000 0.937500
vt 0.625000 1.000000
vt 0.562500 1.000000
vt 0.500000 1.000000
vt 0.500000 0.125000
vt 0.562500 0.125000
vt 0.562500 0.187500
vt 0.500000 0.187500
vt 0.625000 0.125000
vt 0.625000 0.187500
vt 0.625000 0.250000
vt 0.562500 0.250000
vt 0.500000 0.250000
vt 0.250000 0.625000
vt 0.312500 0.625000
vt 0.312500 0.687500
vt 0.250000 0.687500
vt 0.375000 0.625000
vt 0.375000 0.687500
vt 0.375000 0.750000
vt 0.312500 0.750000
vt 0.250000 0.750000
vt 0.500000 0.625000
vt 0.562500 0.625000
vt 0.562500 0.687500
vt 0.500000 0.687500
vt 0.625000 0.625000
vt 0.625000 0.687500
vt 0.625000 0.750000
vt 0.562500 0.750000
vt 0.500000 0.750000
vt 0.500000 0.375000
vt 0.562500 0.375000
vt 0.562500 0.437500
vt 0.500000 0.437500
vt 0.625000 0.375000
vt 0.625000 0.437500
vt 0.625000 0.500000
vt 0.562500 0.500000
vt 0.500000 0.500000
vt 0.375000 0.375000
vt 0.437500 0.375000
vt 0.437500 0.437500
vt 0.375000 0.437500
vt 0.437500 0.500000
vt 0.375000 0.500000
vt 0.375000 0.250000
vt 0.437500 0.250000
vt 0.437500 0.312500
vt 0.375000 0.312500
vt 0.500000 0.312500
vt 0.562500 0.312500
vt 0.625000 0.312500
vt 0.437500 0.625000
vt 0.437500 0.687500
vt 0.437500 0.750000
vt 0.437500 0.562500
vt 0.375000 0.562500
vt 0.500000 0.562500
vt 0.562500 0.562500
vt 0.625000 0.562500
vt 0.125000 0.625000
vt 0.187500 0.625000
vt 0.187500 0.687500
vt 0.125000 0.687500
vt 0.187500 0.750000
vt 0.125000 0.750000
vt 0.125000 0.500000
vt 0.187500 0.500000
vt 0.187500 0.562500
vt 0.125000 0.562500
vt 0.250000 0.500000
vt 0.250000 0.562500
vt 0.312500 0.500000
vt 0.312500 0.562500
vt 0.375000 0.125000
vt 0.437500 0.125000
vt 0.437500 0.187500
vt 0.375000 0.187500
vt 0.375000 0.000000
vt 0.437500 0.000000
vt 0.437500 0.062500
vt 0.375000 0.062500
vt 0.500000 0.000000
vt 0.500000 0.062500
vt 0.562500 0.000000
vt 0.562500 0.062500
vt 0.625000 0.000000
vt 0.625000 0.062500
vt 0.375000 0.875000
vt 0.437500 0.875000
vt 0.437500 0.937500
vt 0.375000 0.937500
vt 0.437500 1.000000
vt 0.375000 1.000000
vt 0.437500 0.812500
vt 0.375000 0.812500
vt 0.500000 0.812500
vt 0.562500 0.812500
vt 0.625000 0.812500
vt 0.687500 0.625000
vt 0.687500 0.687500
vt 0.687500 0.750000
vt 0.687500 0.500000
vt 0.687500 0.562500
vt 0.750000 0.500000
vt 0.750000 0.562500
vt 0.812500 0.500000
vt 0.812500 0.562500
vt 0.875000 0.500000
vt 0.875000 0.562500
s 1
usemtl Material
f 26/1/26 74/2/74 75/3/75 71/4/71
f 74/2/74 18/5/18 48/6/48 75/3/75
f 75/3/75 48/6/48 7/7/7 33/8/33
f 71/4/71 75/3/75 33/8/33 15/9/15
f 25/10/25 70/11/70 76/12/76 67/13/67
f 70/11/70 15/14/15 33/15/33 76/12/76
f 76/12/76 33/15/33 7/16/7 30/17/30
f 67/13/67 76/12/76 30/17/30 12/18/12
f 24/19/24 66/20/66 77/21/77 63/22/63
f 66/20/66 18/23/18 36/24/36 77/21/77
f 77/21/77 36/24/36 5/25/5 44/26/44
f 63/22/63 77/21/77 44/26/44 14/27/14
f 23/28/23 62/29/62 78/30/78 59/31/59
f 62/29/62 20/32/20 50/33/50 78/30/78
f 78/30/78 50/33/50 4/34/4 35/35/35
f 59/31/59 78/30/78 35/35/35 17/36/17
f 22/37/22 58/38/58 79/39/79 55/40/55
f 58/38/58 16/41/16 34/42/34 79/39/79
f 79/39/79 34/42/34 3/43/3 43/44/43
f 55/40/55 79/39/79 43/44/43 13/45/13
f 21/46/21 54/47/54 80/48/80 51/49/51
f 54/47/54 19/50/19 37/51/37 80/48/80
f 80/48/80 37/51/37 1/52/1 41/53/41
f 51/49/51 80/48/80 41/53/41 11/54/11
f 10/55/10 53/56/53 81/57/81 40/58/40
f 53/56/53 21/46/21 51/49/51 81/57/81
f 81/57/81 51/49/51 11/54/11 29/59/29
f 40/58/40 81/57/81 29/59/29 2/60/2
f 6/61/6 32/62/32 82/63/82 28/64/28
f 32/62/32 14/27/14 52/65/52 82/63/82
f 82/63/82 52/65/52 21/46/21 53/56/53
f 28/64/28 82/63/82 53/56/53 10/55/10
f 14/27/14 44/26/44 83/66/83 52/65/52
f 44/26/44 5/25/5 49/67/49 83/66/83
f 83/66/83 49/67/49 19/50/19 54/47/54
f 52/65/52 83/66/83 54/47/54 21/46/21
f 20/32/20 57/68/57 84/69/84 50/33/50
f 57/68/57 22/37/22 55/40/55 84/69/84
f 84/69/84 55/40/55 13/45/13 31/70/31
f 50/33/50 84/69/84 31/70/31 4/34/4
f 2/60/2 29/59/29 85/71/85 38/72/38
f 29/59/29 11/54/11 56/73/56 85/71/85
f 85/71/85 56/73/56 22/37/22 57/68/57
f 38/72/38 85/71/85 57/68/57 20/32/20
f 11/54/11 41/53/41 86/74/86 56/73/56
f 41/53/41 1/52/1 46/75/46 86/74/86
f 86/74/86 46/75/46 16/41/16 58/38/58
f 56/73/56 86/74/86 58/38/58 22/37/22
f 9/76/9 61/77/61 87/78/87 27/79/27
f 61/77/61 23/28/23 59/31/59 87/78/87
f 87/78/87 59/31/59 17/36/17 47/80/47
f 27/79/27 87/78/87 47/80/47 8/81/8
f 6/82/6 28/83/28 88/84/88 39/85/39
f 28/83/28 10/86/10 60/87/60 88/84/88
f 88/84/88 60/87/60 23/28/23 61/77/61
f 39/85/39 88/84/88 61/77/61 9/76/9
f 10/86/10 40/88/40 89/89/89 60/87/60
f 40/88/40 2/60/2 38/72/38 89/89/89
f 89/89/89 38/72/38 20/32/20 62/29/62
f 60/87/60 89/89/89 62/29/62 23/28/23
f 9/90/9 65/91/65 90/92/90 39/93/39
f 65/91/65 24/19/24 63/22/63 90/92/90
f 90/92/90 63/22/63 14/27/14 32/62/32
f 39/93/39 90/92/90 32/62/32 6/61/6
f 8/94/8 42/95/42 91/96/91 27/97/27
f 42/95/42 12/98/12 64/99/64 91/96/91
f 91/96/91 64/99/64 24/19/24 65/91/65
f 27/97/27 91/96/91 65/91/65 9/90/9
f 12/98/12 30/100/30 92/101/92 64/99/64
f 30/100/30 7/102/7 48/103/48 92/101/92
f 92/101/92 48/103/48 18/23/18 66/20/66
f 64/99/64 92/101/92 66/20/66 24/19/24
f 17/104/17 69/105/69 93/106/93 47/107/47
f 69/105/69 25/10/25 67/13/67 93/106/93
f 93/106/93 67/13/67 12/18/12 42/108/42
f 47/107/47 93/106/93 42/108/42 8/109/8
f 4/34/4 31/70/31 94/110/94 35/111/35
f 31/70/31 13/45/13 68/112/68 94/110/94
f 94/110/94 68/112/68 25/10/25 69/105/69
f 35/111/35 94/110/94 69/105/69 17/104/17
f 13/45/13 43/44/43 95/113/95 68/112/68
f 43/44/43 3/43/3 45/114/45 95/113/95
f 95/113/95 45/114/45 15/14/15 70/11/70
f 68/112/68 95/113/95 70/11/70 25/10/25
f 16/41/16 73/115/73 96/116/96 34/42/34
f 73/115/73 26/1/26 71/4/71 96/116/96
f 96/116/96 71/4/71 15/9/15 45/117/45
f 34/42/34 96/116/96 45/117/45 3/43/3
f 1/52/1 37/118/37 97/119/97 46/75/46
f 37/118/37 19/120/19 72/121/72 97/119/97
f 97/119/97 72/121/72 26/1/26 73/115/73
f 46/75/46 97/119/97 73/115/73 16/41/16
f 19/120/19 49/122/49 98/123/98 72/121/72
f 49/122/49 5/124/5 36/125/36 98/123/98
f 98/123/98 36/125/36 18/5/18 74/2/74
f 72/121/72 98/123/98 74/2/74 26/1/26
