# Blender 4.2.0
# www.blender.org
mtllib manCube.mtl
o ManCube
v -0.232971 1.244835 0.232971
v -0.232971 1.710778 0.232971
v -0.232971 1.244835 -0.232971
v -0.232971 1.710778 -0.232971
v 0.232971 1.244835 0.232971
v 0.232971 1.710778 0.232971
v 0.232971 1.244835 -0.232971
v 0.232971 1.710778 -0.232971
v -0.340203 0.000000 0.100000
v -0.340203 0.611358 0.100000
v -0.340203 0.000000 -0.100000
v -0.340203 0.611358 -0.100000
v -0.195282 0.000000 0.100000
v -0.195282 0.611358 0.100000
v -0.195282 0.000000 -0.100000
v -0.195282 0.611358 -0.100000
v 0.340204 0.000000 0.100000
v 0.340204 0.611358 0.100000
v 0.340204 0.000000 -0.100000
v 0.340204 0.611358 -0.100000
v 0.195282 0.000000 0.100000
v 0.195282 0.611358 0.100000
v 0.195282 0.000000 -0.100000
v 0.195282 0.611358 -0.100000
v -0.345899 0.525680 0.345899
v -0.345899 1.217478 0.345899
v -0.345899 0.525680 -0.345899
v -0.345899 1.217478 -0.345899
v 0.345899 0.525680 0.345899
v 0.345899 1.217478 0.345899
v 0.345899 0.525680 -0.345899
v 0.345899 1.217478 -0.345899
vn -1.0000 -0.0000 -0.0000
vn -0.0000 -0.0000 -1.0000
vn 1.0000 -0.0000 -0.0000
vn -0.0000 -0.0000 1.0000
vn -0.0000 -1.0000 -0.0000
vn -0.0000 1.0000 -0.0000
vt 0.375000 0.000000
vt 0.625000 0.000000
vt 0.625000 0.250000
vt 0.375000 0.250000
vt 0.625000 0.500000
vt 0.375000 0.500000
vt 0.625000 0.750000
vt 0.375000 0.750000
vt 0.625000 1.000000
vt 0.375000 1.000000
vt 0.125000 0.500000
vt 0.125000 0.750000
vt 0.875000 0.500000
vt 0.875000 0.750000
s 0
f 1/1/1 2/2/1 4/3/1 3/4/1
f 3/4/2 4/3/2 8/5/2 7/6/2
f 7/6/3 8/5/3 6/7/3 5/8/3
f 5/8/4 6/7/4 2/9/4 1/10/4
f 3/11/5 7/6/5 5/8/5 1/12/5
f 8/5/6 4/13/6 2/14/6 6/7/6
f 9/1/1 10/2/1 12/3/1 11/4/1
f 11/4/2 12/3/2 16/5/2 15/6/2
f 15/6/3 16/5/3 14/7/3 13/8/3
f 13/8/4 14/7/4 10/9/4 9/10/4
f 11/11/5 15/6/5 13/8/5 9/12/5
f 16/5/6 12/13/6 10/14/6 14/7/6
f 17/1/3 19/4/3 20/3/3 18/2/3
f 19/4/2 23/6/2 24/5/2 20/3/2
f 23/6/1 21/8/1 22/7/1 24/5/1
f 21/8/4 17/10/4 18/9/4 22/7/4
f 19/11/5 17/12/5 21/8/5 23/6/5
f 24/5/6 22/7/6 18/14/6 20/13/6
f 25/1/1 26/2/1 28/3/1 27/4/1
f 27/4/2 28/3/2 32/5/2 31/6/2
f 31/6/3 32/5/3 30/7/3 29/8/3
f 29/8/4 30/7/4 26/9/4 25/10/4
f 27/11/5 31/6/5 29/8/5 25/12/5
f 32/5/6 28/13/6 26/14/6 30/7/6
